<svg width="16" height="16" viewBox="0 0 16 16" fill="none" xmlns="http://www.w3.org/2000/svg">
<path d="M11.8959 9.63092L11.6167 6.67099C11.1683 6.78255 7.03561 8.73576 6.58116 8.81819C5.70473 8.97685 4.77585 9.09103 3.88361 8.99206L4.1871 10.9655C4.52003 13.1288 6.51619 14.5897 8.6463 14.2283C10.7761 13.8668 12.233 11.8204 11.9002 9.65681L11.896 9.63056L11.8959 9.63092Z" fill="#51A0FE" stroke="black" stroke-width="0.385391" stroke-miterlimit="10"/>
<path d="M8.11647 2.66919C7.94823 2.12134 7.36799 1.81391 6.82047 1.98253C6.27295 2.15115 5.96549 2.73197 6.13373 3.27982L7.95042 9.19564C8.11866 9.7435 8.6989 10.0509 9.24642 9.88231C9.79394 9.71369 10.1014 9.13287 9.93317 8.58501L8.11647 2.66919Z" fill="#45F777" stroke="black" stroke-width="0.385391" stroke-miterlimit="10"/>
<path d="M7.26429 6.54836C7.173 5.98251 6.64059 5.59807 6.07513 5.68969C5.50967 5.78132 5.12528 6.3143 5.21657 6.88015L5.48544 8.54664C5.57673 9.11249 6.10914 9.49693 6.6746 9.40531C7.24006 9.31369 7.62445 8.7807 7.53316 8.21485L7.26429 6.54836Z" fill="#7C52FF" stroke="black" stroke-width="0.385391" stroke-miterlimit="10"/>
<path d="M5.66859 7.63033C5.5773 7.06448 5.04489 6.68004 4.47943 6.77167C3.91396 6.86329 3.52957 7.39627 3.62087 7.96212L3.90602 9.72958C3.99732 10.2954 4.52972 10.6799 5.09518 10.5882C5.66065 10.4966 6.04504 9.96364 5.95375 9.39779L5.66859 7.63033Z" fill="#F6AB3C" stroke="black" stroke-width="0.385391" stroke-miterlimit="10"/>
<path d="M12.0321 2.62545C12.066 2.05322 11.63 1.562 11.0582 1.52828C10.4865 1.49456 9.99542 1.9311 9.96146 2.50333L9.64416 7.85002C9.6102 8.42224 10.0462 8.91346 10.618 8.94718C11.1897 8.98091 11.6808 8.54436 11.7148 7.97213L12.0321 2.62545Z" fill="#F9008E" stroke="black" stroke-width="0.385391" stroke-miterlimit="10"/>
<path d="M7.46133 8.09144C6.89587 8.18306 6.51147 8.71605 6.60277 9.2819C6.69406 9.84775 7.22646 10.2322 7.79193 10.1406L11.1238 9.60071C11.6892 9.50908 12.0736 8.9761 11.9823 8.41025C11.891 7.8444 11.3586 7.45996 10.7932 7.55159L7.46133 8.09144Z" fill="#CEC8C4" stroke="black" stroke-width="0.385391" stroke-miterlimit="10"/>
</svg>
