<svg width="73" height="99" viewBox="0 0 73 99" fill="none" xmlns="http://www.w3.org/2000/svg">
<path d="M64.6128 59.2361L62.6359 38.2773C59.4609 39.0672 30.1977 52.8976 26.9798 53.4813C20.774 54.6047 14.1967 55.4132 7.87896 54.7124L10.0279 68.6863C12.3853 84.0037 26.5198 94.3486 41.6027 91.7896C56.6831 89.2299 66.9998 74.7394 64.6431 59.4194L64.6135 59.2335L64.6128 59.2361Z" fill="#51A0FE" stroke="black" stroke-width="1.77425" stroke-miterlimit="10"/>
<path d="M37.8541 9.94182C36.6628 6.06255 32.5542 3.88568 28.6773 5.07966C24.8004 6.27363 22.6233 10.3863 23.8146 14.2656L36.6783 56.1544C37.8696 60.0337 41.9781 62.2106 45.855 61.0166C49.7319 59.8226 51.909 55.7099 50.7177 51.8307L37.8541 9.94182Z" fill="#45F777" stroke="black" stroke-width="1.77425" stroke-miterlimit="10"/>
<path d="M31.8198 37.4094C31.1734 33.4027 27.4035 30.6806 23.3996 31.3294C19.3956 31.9781 16.6738 35.7521 17.3202 39.7588L19.224 51.5589C19.8705 55.5656 23.6403 58.2877 27.6443 57.639C31.6482 56.9902 34.37 53.2162 33.7236 49.2096L31.8198 37.4094Z" fill="#7C52FF" stroke="black" stroke-width="1.77425" stroke-miterlimit="10"/>
<path d="M20.5211 45.0705C19.8747 41.0638 16.1048 38.3417 12.1009 38.9904C8.09691 39.6392 5.37511 43.4132 6.02153 47.4198L8.04068 59.9349C8.6871 63.9416 12.457 66.6637 16.4609 66.015C20.4649 65.3662 23.1867 61.5922 22.5402 57.5855L20.5211 45.0705Z" fill="#F6AB3C" stroke="black" stroke-width="1.77425" stroke-miterlimit="10"/>
<path d="M65.581 9.63171C65.8214 5.57988 62.7343 2.10166 58.6856 1.86288C54.6369 1.62411 51.1599 4.7152 50.9195 8.76703L48.6727 46.626C48.4323 50.6778 51.5194 54.156 55.5681 54.3948C59.6168 54.6336 63.0938 51.5425 63.3342 47.4906L65.581 9.63171Z" fill="#F9008E" stroke="black" stroke-width="1.77425" stroke-miterlimit="10"/>
<path d="M33.2151 48.3353C29.2112 48.984 26.4894 52.758 27.1358 56.7647C27.7822 60.7714 31.5521 63.4935 35.5561 62.8447L59.1482 59.0221C63.1521 58.3734 65.8739 54.5994 65.2275 50.5927C64.5811 46.586 60.8112 43.8639 56.8072 44.5127L33.2151 48.3353Z" fill="#CEC8C4" stroke="black" stroke-width="1.77425" stroke-miterlimit="10"/>
</svg>
