<svg width="157" height="224" viewBox="0 0 157 224" fill="none" xmlns="http://www.w3.org/2000/svg">
<path d="M140.06 133.783L135.788 85.9105C128.926 87.7149 65.6815 119.305 58.727 120.638C45.3148 123.204 31.0998 125.051 17.4458 123.45L22.0901 155.368C27.185 190.354 57.7327 213.983 90.3303 208.138C122.922 202.292 145.219 169.194 140.126 134.201L140.062 133.777L140.06 133.783Z" fill="white" stroke="#E9E9E9" stroke-width="3.83456" stroke-miterlimit="10"/>
<path d="M82.2276 21.1892C79.653 12.3286 70.7734 7.3564 62.3946 10.0836C54.0158 12.8107 49.3106 22.2045 51.8852 31.0652L79.6865 126.744C82.2611 135.604 91.1406 140.577 99.5195 137.849C107.898 135.122 112.603 125.728 110.029 116.868L82.2276 21.1892Z" fill="white" stroke="#E9E9E9" stroke-width="3.83456" stroke-miterlimit="10"/>
<path d="M69.1843 83.9285C67.7873 74.7769 59.6397 68.5592 50.9863 70.0411C42.3329 71.5229 36.4505 80.143 37.8475 89.2947L41.9621 116.247C43.3591 125.399 51.5067 131.617 60.1601 130.135C68.8135 128.653 74.6959 120.033 73.2989 110.881L69.1843 83.9285Z" fill="white" stroke="#E9E9E9" stroke-width="3.83456" stroke-miterlimit="10"/>
<path d="M44.766 101.428C43.3689 92.2759 35.2214 86.0583 26.568 87.5401C17.9146 89.0219 12.0321 97.6421 13.4292 106.794L17.793 135.379C19.1901 144.531 27.3376 150.749 35.9911 149.267C44.6445 147.785 50.5269 139.165 49.1298 130.013L44.766 101.428Z" fill="white" stroke="#E9E9E9" stroke-width="3.83456" stroke-miterlimit="10"/>
<path d="M142.151 20.4812C142.67 11.2264 135.998 3.28183 127.248 2.73644C118.498 2.19105 110.984 9.25143 110.464 18.5062L105.608 104.98C105.088 114.235 111.761 122.179 120.511 122.725C129.261 123.27 136.775 116.21 137.295 106.955L142.151 20.4812Z" fill="white" stroke="#E9E9E9" stroke-width="3.83456" stroke-miterlimit="10"/>
<path d="M72.2007 108.884C63.5473 110.366 57.6649 118.986 59.0619 128.138C60.459 137.29 68.6065 143.507 77.26 142.025L128.248 133.294C136.901 131.812 142.784 123.192 141.387 114.041C139.989 104.889 131.842 98.6712 123.189 100.153L72.2007 108.884Z" fill="white" stroke="#E9E9E9" stroke-width="3.83456" stroke-miterlimit="10"/>
</svg>
